<svg id="Layer_1" data-name="Layer 1" xmlns="http://www.w3.org/2000/svg" viewBox="0 0 1668.43 1338.32"><defs><style>.cls-1{fill:#282828;}</style></defs><path class="cls-1" d="M78.27,147.51l593.05,1,590,.95,332.83.53L1546.44,34.71,1139.22,445,936.68,649.06l-51.17,51.55-23.45,23.63c-7.57,7.62-15.73,15-21.22,24.4-8.48,14.51-9.21,30.07-9.21,46.17v468.68l85.44-65.09-162-62.71,49.56,65.09V792.6c0-5,.14-10.09,0-15.12-.54-18.9-7.31-33.78-19.77-47.73-2-2.25-4.16-4.4-6.24-6.6L755.76,699,708,648.35l-372-393.84L126,32.28C114.33,19.92,95.08,12.51,78.27,12.51c-16.55,0-36.33,7.36-47.73,19.77-25.31,27.58-25.92,68,0,95.46L288.27,400.57,543.91,671.2q72.74,77,145.49,154l-19.77-47.73v423.3c0,15,5.41,29.15,14.49,40.9,9.57,12.39,20.37,18.5,35.06,24.19l162,62.71c19.55,7.57,43.24,0,58.85-12.08,16.66-12.88,26.6-31.59,26.6-53V782.71l-19.77,47.73,270.76-272.8,271.84-273.88L1641.9,130.17c19.21-19.36,24.45-48.86,13.95-73.73-10.35-24.53-34.59-41.45-61.68-41.5L1001.12,14l-590-.94L78.27,12.51A69.64,69.64,0,0,0,30.54,32.28C18.84,44,10,63.2,10.77,80,12.41,116.63,40.43,147.45,78.27,147.51Z"/></svg>