<svg id="Layer_1" data-name="Layer 1" xmlns="http://www.w3.org/2000/svg" viewBox="0 0 1347.83 1357.25"><defs><style>.cls-1{fill:#282828;}</style></defs><path class="cls-1" d="M742.8,290.5a430.38,430.38,0,0,1,35.46,40.26l-14.64-18.94a418.79,418.79,0,0,1,54.11,92.47l-9.43-22.36A420.44,420.44,0,0,1,833.62,465q2.32,12,4,24.15l-3.35-24.89a422.63,422.63,0,0,1,2.58,87.3q-.93,12.39-2.58,24.7l3.35-24.88a420.85,420.85,0,0,1-20.33,84.17q-4.12,11.65-9,23.06l9.43-22.36a419.08,419.08,0,0,1-54.11,92.48l14.64-19a426.1,426.1,0,0,1-75.73,75.73l19-14.63A419.44,419.44,0,0,1,629,825l22.36-9.43a419.37,419.37,0,0,1-83.09,25.32q-12,2.33-24.14,4L569,841.5a422.59,422.59,0,0,1-87.3,2.58q-12.39-.92-24.7-2.58l24.88,3.35a421.25,421.25,0,0,1-84.16-20.32q-11.67-4.14-23.07-9L397,825a419.14,419.14,0,0,1-92.47-54.1l18.94,14.63a426.44,426.44,0,0,1-75.73-75.73l14.64,19a419.87,419.87,0,0,1-54.11-92.48l9.44,22.36a419.37,419.37,0,0,1-25.32-83.09q-2.34-12-4-24.14l3.34,24.88a424,424,0,0,1-2.58-87.3q.93-12.37,2.58-24.7l-3.34,24.89A420,420,0,0,1,208.77,405q4.14-11.67,9-23.07l-9.44,22.36a419.57,419.57,0,0,1,54.11-92.47l-14.64,18.94A427.1,427.1,0,0,1,323.49,255l-18.94,14.64A419.57,419.57,0,0,1,397,215.56L374.66,225a419.77,419.77,0,0,1,83.09-25.32q12-2.34,24.14-4L457,199.06a423.33,423.33,0,0,1,87.3-2.57q12.39.91,24.7,2.57l-24.88-3.34A420.83,420.83,0,0,1,628.3,216q11.66,4.14,23.06,9L629,215.56a419.87,419.87,0,0,1,92.48,54.11l-19-14.64A430.43,430.43,0,0,1,742.8,290.5a70.05,70.05,0,0,0,30.12,19.35,84.62,84.62,0,0,0,72.13,0,70.08,70.08,0,0,0,30.13-19.35l14.63-18.95a93.1,93.1,0,0,0,12.78-47.24l-3.34-24.89a93.57,93.57,0,0,0-24.07-41.3c-21.34-21.3-45.08-40.09-69.45-57.78a415.94,415.94,0,0,0-55.91-34.19c-16.47-8.37-33.55-15.37-50.59-22.48q-14.84-6.18-30.11-11.22A420,420,0,0,0,607.6,17.26c-28.78-4.84-58-8.59-87.27-9.09a425.68,425.68,0,0,0-62.92,3.62c-29.12,3.85-57.74,8-86,16.18-28.05,8.12-55.29,19.38-81.75,31.64a415.16,415.16,0,0,0-56.84,32C217.36,102,202.68,113.51,188.08,125q-13.23,10.42-25.58,21.88A423.05,423.05,0,0,0,117,196.36c-18.4,23.48-36.11,47-50.64,73.12-14.2,25.5-25.83,52.62-36,79.94a418.49,418.49,0,0,0-17.51,61c-3.78,18.33-6.06,36.89-8.48,55.45q-2.06,15.74-2.91,31.61a422,422,0,0,0,1.35,63.4c2.81,29,6.88,58.09,14,86.34a419.37,419.37,0,0,0,20.13,60.39C48.35,735,60.06,761.72,75.66,787q8.66,14,18.42,27.37c11,15.07,22.44,30,34.6,44.13A424.3,424.3,0,0,0,176.43,906c22.66,19.21,46.6,37.47,72,52.93s52.14,27.1,79.5,38.42a415.83,415.83,0,0,0,60.49,19.76c28.28,6.91,57.44,10.95,86.39,13.59a420.67,420.67,0,0,0,63.4,1c18.68-1.13,37.14-3.81,55.68-6.33q15.55-2.13,30.94-5.34a418,418,0,0,0,61-17.82q26-9.81,51.32-21.61,14.73-6.87,28.89-14.87c26-14.67,49.6-32.47,73-51a424.33,424.33,0,0,0,49.2-45.86q11.21-12.24,21.43-25.35c11.54-14.79,23.14-29.51,33.51-45.16a415.25,415.25,0,0,0,31.62-57c12.06-26.43,23.22-53.49,31.17-81.47,8-28.25,12.14-56.95,15.88-86a421.68,421.68,0,0,0,3.31-63.34q-.37-15.87-1.93-31.67c-1.84-18.59-4.33-37.17-7.53-55.57a418.21,418.21,0,0,0-15.56-61.44q-5.05-15-11.24-29.68C981.6,315,974.55,297.82,966,281.25a415.37,415.37,0,0,0-34.57-55.74c-17.35-23.61-35.55-46.63-56.26-67.39a70.2,70.2,0,0,0-30.13-19.36,84.72,84.72,0,0,0-72.13,0,70.16,70.16,0,0,0-30.12,19.36l-14.64,18.94a93.13,93.13,0,0,0-12.78,47.25l3.34,24.88A93.48,93.48,0,0,0,742.8,290.5Z"/><path class="cls-1" d="M809.93,928.07l69.85,69.85,70.1,70.1,69.84,69.84,70.1,70.1,69.85,69.85,8.6,8.6a86.83,86.83,0,0,0,55.16,22.85,86.77,86.77,0,0,0,55.16-22.85l12.2-15.78a77.79,77.79,0,0,0,10.65-39.38l-2.79-20.73a77.8,77.8,0,0,0-20.06-34.42l-69.85-69.85-70.1-70.1L1068.8,966.3l-70.1-70.1-69.85-69.84-8.6-8.61a58.51,58.51,0,0,0-25.11-16.12,70.55,70.55,0,0,0-60.1,0,58.51,58.51,0,0,0-25.11,16.12l-12.2,15.79a77.78,77.78,0,0,0-10.65,39.37l2.79,20.74a78,78,0,0,0,20.06,34.42Z"/><path class="cls-1" d="M863.33,1046.56q26.58,26.67,53.14,53.35l53.14,53.36,52.94,53.15,53,53.16,53.13,53.36,6.55,6.57a93.57,93.57,0,0,0,40.17,25.81,113,113,0,0,0,96.17,0,93.69,93.69,0,0,0,40.17-25.81l19.51-25.26a124.26,124.26,0,0,0,17-63l-4.46-33.17a124.73,124.73,0,0,0-32.09-55.08q-26.58-26.67-53.14-53.35t-53.14-53.35l-52.94-53.16-53-53.16-53.13-53.35-6.55-6.58a93.46,93.46,0,0,0-40.17-25.8,112.92,112.92,0,0,0-96.17,0,93.57,93.57,0,0,0-40.17,25.8l-19.51,25.26a124.26,124.26,0,0,0-17,63l4.46,33.18a124.65,124.65,0,0,0,32.09,55.07Z"/></svg>