<svg id="Layer_1" data-name="Layer 1" xmlns="http://www.w3.org/2000/svg" viewBox="0 0 20 20"><defs><style>.cls-1{fill:#282828;}</style></defs><path class="cls-1" d="M1.27,6,18.73,6l-.9-2.18-5.37,6.7a5.51,5.51,0,0,0-1.19,1.63,7.49,7.49,0,0,0,0,2V18.5l1.62-1.23-4-1,.94,1.23v-4a2.84,2.84,0,0,0-.38-1.9A19.56,19.56,0,0,0,7.89,10L2.17,3.8C1.05,2.59-.75,4.4.36,5.61L7.6,13.4l-.38-.9v5a1.3,1.3,0,0,0,.94,1.23l4,1a1.29,1.29,0,0,0,1.62-1.23v-6l-.38.9,6.23-7.76a1.3,1.3,0,0,0-.9-2.19l-17.46,0A1.28,1.28,0,0,0,1.27,6Z"/></svg>