<svg id="Layer_1" data-name="Layer 1" xmlns="http://www.w3.org/2000/svg" viewBox="0 0 20 20"><defs><style>.cls-1{fill:#282828;}</style></defs><path class="cls-1" d="M10.91,4.77a4,4,0,0,1,.28.3l.11.13c-.13-.16,0,0,0,0a6.59,6.59,0,0,1,.44.72l.1.2c0-.11.07.2.09.26a4.46,4.46,0,0,1,.2.8l0,.16c0-.26,0-.06,0,0s0,.25,0,.38v.38c0,.07,0,.48,0,.21A4.26,4.26,0,0,1,12,9c0,.12-.07.25-.11.37l-.06.15c0,.14.08-.15,0,.06a6.52,6.52,0,0,1-.38.68c-.06.1-.13.19-.19.28.13-.17-.13.14-.18.19a5.12,5.12,0,0,1-.59.55c.17-.14-.1.08-.16.11a3,3,0,0,1-.38.24l-.35.18c-.21.1.12,0-.1,0a4.45,4.45,0,0,1-.79.23l-.38.07c.26,0-.06,0-.15,0-.27,0-.54,0-.81,0,0,0-.21,0-.06,0H7.2l-.37-.08a4.79,4.79,0,0,1-.73-.24c.22.09-.09,0-.16-.08l-.34-.19-.33-.21-.14-.1c.14.11,0,0-.06-.06a4.42,4.42,0,0,1-.53-.53l-.15-.17s.1.14,0,0a3,3,0,0,1-.25-.37L4,9.79a1.24,1.24,0,0,0-.1-.2s-.08-.18,0-.05,0,0,0-.06l-.08-.21-.12-.42c0-.1-.05-.21-.07-.32l0-.21s0,.21,0,.06,0-.54,0-.81c0-.07,0-.4,0-.27l0-.26a5.14,5.14,0,0,1,.23-.79l.06-.16s-.09.17,0,0A3.84,3.84,0,0,1,4,5.79a2.33,2.33,0,0,1,.2-.34l.09-.14s.19-.26.1-.15,0,0,0,0l.15-.17c.1-.1.19-.2.29-.29s.2-.18.3-.27c-.17.14.16-.11.21-.14a7.37,7.37,0,0,1,.78-.43c-.2.1.09,0,.17-.05l.42-.13a3.15,3.15,0,0,1,.42-.09s.27,0,.1,0h.11a6.32,6.32,0,0,1,.87,0h.1l.11,0a3.15,3.15,0,0,1,.42.09l.42.13.21.07c.18.06-.16-.08,0,0a7.44,7.44,0,0,1,.78.44l.14.1c.3.2-.09-.09.07,0l.38.35A1.25,1.25,0,0,0,12.68,3a6.94,6.94,0,0,0-7.8-1.32A6.85,6.85,0,0,0,1,8.43a6.93,6.93,0,0,0,5.13,6,7,7,0,0,0,7.38-2.84A6.93,6.93,0,0,0,12.68,3a1.25,1.25,0,0,0-1.77,1.77Z"/><path class="cls-1" d="M11.81,13.28l4.79,4.79a1,1,0,0,0,1.47-1.47l-4.79-4.79a1,1,0,0,0-1.47,1.47Z"/><path class="cls-1" d="M12.52,14.87l3.63,3.64a1.74,1.74,0,0,0,1.18.49A1.67,1.67,0,0,0,19,17.33a1.74,1.74,0,0,0-.49-1.18l-3.63-3.64A1.73,1.73,0,0,0,13.7,12,1.67,1.67,0,0,0,12,13.69a1.74,1.74,0,0,0,.49,1.18Z"/></svg>